<svg width="45" height="50" viewBox="0 0 45 50" fill="none" xmlns="http://www.w3.org/2000/svg">
<path fill-rule="evenodd" clip-rule="evenodd" d="M4.34999 22.6033C2.33583 23.1933 1.48133 25.2645 1.50982 27.6164C1.52202 28.6784 1.71327 29.7933 2.05913 30.8716C2.405 31.9458 2.90142 32.9671 3.53211 33.846C4.96441 35.852 7.09657 37.0768 9.59494 36.2182C9.78212 36.1531 9.9815 36.1694 10.1483 36.2467C10.189 36.2304 10.2297 36.2182 10.2745 36.202C10.897 35.9985 11.4748 35.8235 11.9997 35.6649C12.5857 35.4899 13.139 35.3312 13.6599 35.1928C14.0627 35.083 14.4778 35.3231 14.5876 35.7259C14.5958 35.7544 14.5998 35.7829 14.6039 35.8113C14.6771 36.1409 14.7544 36.4705 14.8277 36.8001C15.4014 39.3554 15.9548 41.8213 16.6954 43.8232C16.7076 43.8598 16.8052 44.1325 16.907 44.4051C17.3627 45.6665 17.855 47.0133 18.4857 47.8068C19.0432 48.5026 19.8122 48.7101 21.0085 47.7742C21.2323 47.5626 21.4602 47.3673 21.6921 47.1679C22.4042 46.5535 23.1203 45.9432 23.3807 45.0236C23.218 44.7998 22.9047 44.6655 22.5914 44.5312C21.5456 44.0877 20.4999 43.6401 20.7807 41.4428C20.7929 41.3289 20.8091 41.2272 20.8213 41.1255C20.9027 40.4826 20.9475 40.153 20.9068 40.0106C20.8864 39.9332 20.7278 39.7908 20.4144 39.5019L20.3005 39.3961C19.682 38.8305 19.4623 38.0208 19.4704 37.146C19.4786 36.1165 19.8163 34.9853 20.154 34.1715C20.2598 33.9152 20.4918 33.7483 20.7481 33.7117C28.5687 32.6294 33.3376 33.9884 37.1299 35.0708C37.2927 35.1155 37.4555 35.1644 37.6142 35.2091C34.2287 31.7179 31.4537 26.4282 29.5534 21.0083C27.5474 15.2832 26.518 9.36684 26.7865 5.22459C23.6859 9.80629 18.2457 17.0817 5.27772 21.8506C5.26551 21.8546 5.25331 21.8587 5.2411 21.8628L5.13937 21.8994C5.0051 21.9482 4.98475 21.936 4.96441 21.9523C4.93592 21.9767 4.96441 21.9767 4.91151 22.0622C4.90337 22.0744 4.92779 22.0337 4.77316 22.2778C4.67551 22.4406 4.52088 22.5504 4.34999 22.6033ZM36.6498 21.4925C36.6498 23.3683 34.8106 26.7415 33.6591 26.8066C35.6203 30.6478 38.0292 33.9721 40.7432 35.9578C40.9019 35.9782 41.0484 35.9904 41.1867 35.9822C41.4512 35.9741 41.7116 35.9009 41.9965 35.7218C42.615 35.0993 43.0056 34.1227 43.205 32.8898C43.8153 29.0893 42.5702 23.1364 40.4828 17.4072C38.3913 11.6658 35.4698 6.19301 32.7395 3.36098C31.7385 2.32338 30.7945 1.67234 29.9766 1.53806C29.7691 1.50551 29.6511 1.49737 29.5941 1.51772C29.525 1.54213 29.4192 1.63979 29.2523 1.80662C29.171 1.888 29.0896 1.97752 29.0041 2.07517C28.996 2.09959 28.9838 2.124 28.9756 2.14434C27.698 4.78106 28.113 10.4736 29.7691 16.5771C31.0183 15.9912 36.6498 16.6585 36.6498 21.4925ZM40.6659 37.4674C40.5031 37.5 40.3282 37.4756 40.1736 37.3942C40.0311 37.3698 39.8887 37.3372 39.7382 37.3087C38.7535 37.1053 37.7728 36.8245 36.7149 36.5234C33.1301 35.5021 28.6338 34.2204 21.391 35.1481C21.1672 35.7666 20.98 36.5031 20.976 37.1582C20.9719 37.6302 21.0614 38.0452 21.3137 38.2772L21.4276 38.3829C21.9647 38.8712 22.2292 39.1113 22.3635 39.6199C22.4774 40.0431 22.4205 40.4704 22.3106 41.3167C22.2984 41.4144 22.2862 41.5202 22.2699 41.6341C22.1356 42.7002 22.6565 42.924 23.1773 43.1437C23.8528 43.4326 24.5323 43.7215 24.8659 44.6452C24.9229 44.7794 24.9433 44.9341 24.9148 45.0887C24.6096 46.6512 23.6412 47.4853 22.6687 48.3195C22.453 48.5066 22.2374 48.6898 22.0339 48.881C22.0176 48.8973 22.0014 48.9095 21.9851 48.9258C19.8692 50.6185 18.4166 50.1424 17.3057 48.7549C16.5123 47.762 15.9792 46.2972 15.4828 44.9259C15.4421 44.8079 15.3974 44.694 15.2712 44.3481C14.5022 42.2729 13.9366 39.7461 13.3506 37.1338L13.2896 36.8693C12.9966 36.9507 12.7077 37.0361 12.4229 37.1216C11.8329 37.2965 11.2673 37.4715 10.7261 37.6465C10.657 37.6668 10.6122 37.6872 10.5756 37.7034C10.2216 37.8458 10.0629 37.9069 9.74549 37.7604C6.6327 38.6678 4.0326 37.1663 2.29107 34.729C1.58306 33.7158 1.0134 32.548 0.622772 31.3314C0.232147 30.1147 0.0164893 28.8452 0.000213267 27.6286C-0.0323388 24.7396 1.06629 22.1598 3.63791 21.2483C3.76405 21.0408 3.83729 20.9269 3.99598 20.7926C4.17502 20.6421 4.3215 20.5892 4.62668 20.4793L4.72433 20.4427C4.73654 20.4386 4.74875 20.4345 4.76096 20.4305C18.0707 15.5314 23.1814 7.90199 26.0866 3.56036C26.9004 2.3478 27.5474 1.37937 28.1863 0.740536C28.4996 0.427222 28.7396 0.227841 29.0652 0.105771C29.4029 -0.0203687 29.7325 -0.0285068 30.2126 0.0488044C31.3764 0.235979 32.6011 1.04571 33.8259 2.31524C36.6986 5.29376 39.7463 10.9741 41.9029 16.8986C44.0635 22.8393 45.3493 29.069 44.6942 33.1299C44.4419 34.7086 43.8967 35.9904 43.0015 36.853C42.973 36.8815 42.9364 36.91 42.8998 36.9344C42.3301 37.3209 41.793 37.4715 41.2396 37.4959C41.0484 37.5 40.8572 37.4878 40.6659 37.4674Z" fill="white"/>
</svg>
