<svg width="37" height="36" viewBox="0 0 37 36" fill="none" xmlns="http://www.w3.org/2000/svg">
<path d="M32.4937 8.67291L22.1245 1.41809C19.2982 -0.562131 14.9597 -0.454118 12.2414 1.65212L3.22236 8.69091C1.42216 10.0951 0 12.9754 0 15.2437V27.6651C0 32.2556 3.72642 36 8.31694 36H27.7231C32.3136 36 36.0401 32.2736 36.0401 27.6831V15.4777C36.0401 13.0474 34.4739 10.0591 32.4937 8.67291ZM19.3702 28.7992C19.3702 29.5373 18.7581 30.1493 18.02 30.1493C17.282 30.1493 16.6699 29.5373 16.6699 28.7992V23.3986C16.6699 22.6605 17.282 22.0484 18.02 22.0484C18.7581 22.0484 19.3702 22.6605 19.3702 23.3986V28.7992Z" fill="#6373F7"/>
</svg>
