<svg width="25" height="30" viewBox="0 0 25 30" fill="none" xmlns="http://www.w3.org/2000/svg">
<path d="M24.4523 17.5329L22.8027 14.7884C22.4377 14.1898 22.1166 13.0366 22.1166 12.3358V9.60589C22.1166 4.30659 17.81 0 12.5253 0C7.22598 0.0145986 2.91939 4.30659 2.91939 9.60589V12.3212C2.91939 13.022 2.59822 14.1753 2.24785 14.7738L0.598212 17.5183C-0.0295285 18.584 -0.175515 19.7957 0.218648 20.8468C0.61281 21.9125 1.50333 22.7592 2.67121 23.1388C4.24786 23.6643 5.83911 24.0439 7.45956 24.3213C7.62014 24.3505 7.78073 24.3651 7.94131 24.3943C8.14569 24.4235 8.36467 24.4527 8.58365 24.4819C8.96322 24.5403 9.34278 24.5841 9.73694 24.6133C10.6567 24.7008 11.591 24.7446 12.5253 24.7446C13.445 24.7446 14.3647 24.7008 15.2698 24.6133C15.6056 24.5841 15.9414 24.5549 16.2625 24.5111C16.5253 24.4819 16.7881 24.4527 17.0508 24.4089C17.2114 24.3943 17.372 24.3651 17.5326 24.3359C19.1676 24.0731 20.7881 23.6643 22.3647 23.1388C23.4888 22.7592 24.3502 21.9125 24.7589 20.8322C25.1677 19.7373 25.0509 18.5402 24.4523 17.5329ZM13.591 11.6059C13.591 12.219 13.0946 12.7154 12.4815 12.7154C11.8683 12.7154 11.372 12.219 11.372 11.6059V7.08033C11.372 6.46719 11.8683 5.97083 12.4815 5.97083C13.0946 5.97083 13.591 6.46719 13.591 7.08033V11.6059Z" fill="#D2D2D2"/>
<path d="M16.6279 26.2178C16.0147 27.9113 14.3943 29.1229 12.4964 29.1229C11.3432 29.1229 10.2045 28.6558 9.40154 27.8237C8.93439 27.3857 8.58402 26.8018 8.37964 26.2032C8.56942 26.2324 8.7592 26.247 8.96358 26.2762C9.29935 26.32 9.64972 26.3638 10.0001 26.393C10.8322 26.466 11.6789 26.5098 12.5256 26.5098C13.3578 26.5098 14.1899 26.466 15.0074 26.393C15.314 26.3638 15.6205 26.3492 15.9125 26.3054C16.1461 26.2762 16.3797 26.247 16.6279 26.2178Z" fill="#D2D2D2"/>
</svg>
