<svg width="24" height="25" viewBox="0 0 24 25" fill="none" xmlns="http://www.w3.org/2000/svg">
<path d="M22.6917 20.402C22.0992 18.9987 21.2394 17.7239 20.1603 16.6489C19.0844 15.5707 17.8098 14.7111 16.4071 14.1175C16.3946 14.1112 16.382 14.108 16.3694 14.1018C18.3261 12.6884 19.5981 10.3863 19.5981 7.78894C19.5981 3.48618 16.1119 0 11.8091 0C7.50636 0 4.02018 3.48618 4.02018 7.78894C4.02018 10.3863 5.29216 12.6884 7.24882 14.1049C7.23626 14.1112 7.2237 14.1143 7.21113 14.1206C5.8041 14.7142 4.54154 15.5653 3.45799 16.652C2.37982 17.7279 1.52019 19.0024 0.926586 20.4052C0.343427 21.7784 0.0289163 23.2508 7.85364e-05 24.7425C-0.000759733 24.776 0.00511975 24.8093 0.0173707 24.8405C0.0296217 24.8718 0.0479962 24.9002 0.0714115 24.9242C0.0948268 24.9482 0.122809 24.9673 0.15371 24.9803C0.18461 24.9933 0.217804 25 0.251335 25H2.13576C2.27395 25 2.38387 24.8901 2.38701 24.755C2.44983 22.3304 3.42345 20.0597 5.14455 18.3386C6.92533 16.5578 9.29028 15.5779 11.8091 15.5779C14.328 15.5779 16.6929 16.5578 18.4737 18.3386C20.1948 20.0597 21.1684 22.3304 21.2312 24.755C21.2344 24.8932 21.3443 25 21.4825 25H23.3669C23.4004 25 23.4336 24.9933 23.4645 24.9803C23.4954 24.9673 23.5234 24.9482 23.5468 24.9242C23.5703 24.9002 23.5886 24.8718 23.6009 24.8405C23.6131 24.8093 23.619 24.776 23.6182 24.7425C23.5868 23.2412 23.2758 21.7808 22.6917 20.402ZM11.8091 13.191C10.3675 13.191 9.01076 12.6288 7.99003 11.608C6.9693 10.5873 6.40711 9.23053 6.40711 7.78894C6.40711 6.34736 6.9693 4.99058 7.99003 3.96985C9.01076 2.94912 10.3675 2.38693 11.8091 2.38693C13.2507 2.38693 14.6075 2.94912 15.6282 3.96985C16.6489 4.99058 17.2111 6.34736 17.2111 7.78894C17.2111 9.23053 16.6489 10.5873 15.6282 11.608C14.6075 12.6288 13.2507 13.191 11.8091 13.191Z" fill="#D2D2D2"/>
</svg>
