<svg width="36" height="36" viewBox="0 0 36 36" fill="none" xmlns="http://www.w3.org/2000/svg">
<g clip-path="url(#clip0_147_20)">
<path d="M33 6.4L29.3 2.7C28.982 2.39677 28.5594 2.22762 28.12 2.22762C27.6806 2.22762 27.258 2.39677 26.94 2.7L23.65 6H6C5.46957 6 4.96086 6.21071 4.58579 6.58578C4.21071 6.96086 4 7.46956 4 8V30C4 30.5304 4.21071 31.0391 4.58579 31.4142C4.96086 31.7893 5.46957 32 6 32H28C28.5304 32 29.0391 31.7893 29.4142 31.4142C29.7893 31.0391 30 30.5304 30 30V11.76L33 8.76C33.3127 8.44688 33.4883 8.02248 33.4883 7.58C33.4883 7.13751 33.3127 6.71311 33 6.4V6.4ZM18.83 20.13L14.64 21.06L15.64 16.91L25.19 7.34L28.42 10.57L18.83 20.13ZM29.5 9.43L26.27 6.2L28.12 4.35L31.35 7.58L29.5 9.43Z" fill="#D2D2D2"/>
</g>
<defs>
<clipPath id="clip0_147_20">
<rect width="36" height="36" fill="white"/>
</clipPath>
</defs>
</svg>
