<svg width="26" height="25" viewBox="0 0 26 25" fill="none" xmlns="http://www.w3.org/2000/svg">
<path d="M23.75 11.9963V11.25H25V7.5H23.75V5C23.75 2.2425 21.5075 0 18.75 0H6.25C3.4925 0 1.25 2.2425 1.25 5V7.5H0V11.25H1.25V11.9963C0.441252 12.9087 -0.00326762 14.087 0.00124991 15.3062L0.00625014 20.0037C0.00750014 20.92 0.51125 21.715 1.25 22.1488V23.75C1.25 24.0815 1.3817 24.3995 1.61612 24.6339C1.85054 24.8683 2.16848 25 2.5 25H3.75C4.08152 25 4.39946 24.8683 4.63388 24.6339C4.8683 24.3995 5 24.0815 5 23.75V22.5H20V23.75C20 24.0815 20.1317 24.3995 20.3661 24.6339C20.6005 24.8683 20.9185 25 21.25 25H22.5C22.8315 25 23.1495 24.8683 23.3839 24.6339C23.6183 24.3995 23.75 24.0815 23.75 23.75V22.1575C23.9417 22.0505 24.1186 21.919 24.2762 21.7663C24.7475 21.2938 25.0075 20.665 25.0062 19.9975L25.0012 15.2987C25.0038 14.0816 24.5584 12.9061 23.75 11.9963ZM7.5 2.5H17.5V5H7.5V2.5ZM5.625 18.75C5.12755 18.7498 4.65055 18.5521 4.29892 18.2002C3.94729 17.8483 3.74983 17.3712 3.75 16.8737C3.75017 16.3763 3.94793 15.8993 4.2998 15.5477C4.65166 15.196 5.1288 14.9986 5.62625 14.9987C6.1237 14.9989 6.6007 15.1967 6.95233 15.5485C7.30396 15.9004 7.50142 16.3776 7.50125 16.875C7.50108 17.3724 7.30332 17.8495 6.95145 18.2011C6.59959 18.5527 6.12245 18.7502 5.625 18.75ZM11.25 12.5H3.75V7.5H11.25V12.5ZM19.375 18.75C18.8776 18.7498 18.4005 18.5521 18.0489 18.2002C17.6973 17.8483 17.4998 17.3712 17.5 16.8737C17.5002 16.3763 17.6979 15.8993 18.0498 15.5477C18.4017 15.196 18.8788 14.9986 19.3762 14.9987C19.8737 14.9989 20.3507 15.1967 20.7023 15.5485C21.054 15.9004 21.2514 16.3776 21.2512 16.875C21.2511 17.3724 21.0533 17.8495 20.7015 18.2011C20.3496 18.5527 19.8724 18.7502 19.375 18.75ZM21.25 12.5H13.75V7.5H21.25V12.5Z" fill="#D2D2D2"/>
</svg>
